<?xml version="1.0" encoding="utf-8"?>
<!-- Generator: Adobe Illustrator 22.0.0, SVG Export Plug-In . SVG Version: 6.00 Build 0)  -->
<svg version="1.1" id="Capa_1" xmlns="http://www.w3.org/2000/svg" xmlns:xlink="http://www.w3.org/1999/xlink" x="0px" y="0px"
	 viewBox="0 0 512 512" style="enable-background:new 0 0 512 512;" xml:space="preserve">
<style type="text/css">
	.st0{fill:#F7DD78;}
	.st1{opacity:5.000000e-02;enable-background:new    ;}
	.st2{opacity:0.1;enable-background:new    ;}
	.st3{fill:#5F5F5F;}
	.st4{fill:#C27C59;}
	.st5{opacity:0.1;}
</style>
<path class="st0" d="M325.9,114.5H186.1c-41.8,0-78.5,27.5-90.3,67.6l-10.5,35.8h341.4l-10.5-35.8
	C404.4,142,367.7,114.5,325.9,114.5z"/>
<path class="st1" d="M214.4,114.5h-28.3c-41.8,0-78.5,27.5-90.3,67.6l-10.5,35.8h103.6C179.6,185,200,131.1,214.4,114.5z"/>
<path class="st0" d="M404.7,408.6H107.3l8.4,32.7c10.7,41.6,48.2,70.8,91.2,70.8h98.4c43,0,80.5-29.1,91.2-70.8L404.7,408.6z"/>
<path class="st2" d="M210.2,408.6h-103l8.4,32.7c10.7,41.6,48.2,70.8,91.2,70.8h27.4C204.7,492.8,201.9,436.5,210.2,408.6z"/>
<g>
	<path class="st0" d="M403.1,313.2H108.9c-18.8,0-34,15.2-34,34v35.3c0,18.8,15.2,34,34,34h294.2c18.8,0,34-15.2,34-34v-35.3
		C437.1,328.5,421.9,313.2,403.1,313.2z"/>
	<path class="st0" d="M419,209.8H93c-18.2,0-33,14.8-33,33v37.5c0,18.2,14.8,33,33,33h326c18.2,0,33-14.8,33-33v-37.5
		C452,224.6,437.2,209.8,419,209.8z"/>
</g>
<path class="st2" d="M419,209.8H93c-18.2,0-33,14.8-33,33v37.5c0,18.2,14.8,33,33,33h326c18.2,0,33-14.8,33-33v-37.5
	C452,224.6,437.2,209.8,419,209.8z"/>
<circle class="st3" cx="304.3" cy="365" r="51.7"/>
<path class="st2" d="M187.2,209.8H93c-18.2,0-33,14.8-33,33v37.5c0,18.2,14.8,33,33,33h102.9C167.5,290.8,170.5,235.2,187.2,209.8z"
	/>
<path class="st1" d="M195.9,313.2h-86.9c-18.8,0-34,15.2-34,34v35.3c0,18.8,15.2,34,34,34h98C174.1,392.3,181.8,330.9,195.9,313.2z"
	/>
<g>
	<path class="st4" d="M450.6,57.9H61.4c-16,0-28.9-13-28.9-28.9l0,0C32.5,13,45.5,0,61.4,0h389.1c16,0,28.9,13,28.9,28.9l0,0
		C479.5,44.9,466.5,57.9,450.6,57.9z"/>
	<rect x="235.5" y="57.9" class="st4" width="41.1" height="56.6"/>
</g>
<rect x="235.5" y="57.9" class="st2" width="41.1" height="56.6"/>
<path class="st2" d="M147.2,0H61.4c-16,0-28.9,13-28.9,28.9l0,0c0,16,13,28.9,28.9,28.9h89.6C130.7,41.8,133.1,13.4,147.2,0z"/>
<g class="st5">
	<circle cx="331.9" cy="156.1" r="7.5"/>
	<ellipse transform="matrix(0.1602 -0.9871 0.9871 0.1602 40.1073 394.4604)" cx="251.9" cy="173.7" rx="7.5" ry="7.5"/>
	
		<ellipse transform="matrix(9.853747e-02 -0.9951 0.9951 9.853747e-02 -144.9241 363.0768)" cx="127.9" cy="261.5" rx="7.5" ry="7.5"/>
	<circle cx="304.3" cy="251.4" r="7.5"/>
	<circle cx="372.2" cy="283.4" r="7.5"/>
	<circle cx="170.7" cy="376" r="7.5"/>
	<circle cx="207" cy="467.8" r="7.5"/>
	<circle cx="316.3" cy="456.1" r="7.5"/>
</g>
</svg>
