<?xml version="1.0" encoding="utf-8"?>
<!-- Generator: Adobe Illustrator 22.0.0, SVG Export Plug-In . SVG Version: 6.00 Build 0)  -->
<svg version="1.1" id="Layer_1" xmlns="http://www.w3.org/2000/svg" xmlns:xlink="http://www.w3.org/1999/xlink" x="0px" y="0px"
	 viewBox="0 0 1173 350.1" style="enable-background:new 0 0 1173 350.1;" xml:space="preserve">
<style type="text/css">
	.st0{fill:#F7DD79;}
	.st1{fill:#5F6060;}
	.st2{fill:#5F6060;stroke:#5F6060;stroke-width:6;stroke-miterlimit:10;}
</style>
<g>
	<path class="st0" d="M310.5,15.2c-3.9-6.7-13.3-12.1-21-12.1h-171c-7.7,0-17.2,5.5-21,12.1L12,163.3c-3.9,6.7-3.9,17.6,0,24.2
		l85.5,148.1c3.8,6.7,13.3,12.1,21,12.1h171c7.7,0,17.1-5.5,21-12.1L396,187.5c3.9-6.7,3.9-17.6,0-24.2L310.5,15.2z"/>
</g>
<g id="logo_1_">
	<path class="st1" d="M309.6,129.7c-18.1-18.1-46-20.4-66.5-6.9v-14c0-0.3,0.1-0.4,0.1-0.7c0-11.1-4.7-21.1-12.2-28.3l8.2-8.2
		c1.9-1.9,1.9-5.2,0-7.1c-1.9-1.9-5.2-1.9-7.1,0l-9.3,9.3c-5.5-3-11.8-4.7-18.6-4.7s-13.1,1.8-18.6,4.7l-9.3-9.3
		c-1.9-1.9-5.2-1.9-7.1,0c-1.9,1.9-1.9,5.2,0,7.1l8.2,8.2c-7.5,7.1-12.2,17.1-12.2,28.3v2.1l51.6,51.6l25-25
		c16.8-16.8,44.1-16.8,60.9,0c8.2,8.2,12.6,19,12.6,30.5s-4.5,22.3-12.6,30.5c-16.8,16.8-44.1,16.8-60.9,0l-68-68
		c-20.7-20.7-54.4-20.7-75.1,0c-10.3,10.1-15.8,23.4-15.8,37.6s5.5,27.6,15.5,37.6c16.3,16.3,40.6,19.7,60.3,10.4v18.1
		c0,22.3,16.2,40.9,37.6,44.6l7.7,9.4l7.6-9.5c21.3-3.7,37.6-22.2,37.6-44.6v-2.7l-57.8-57.8l-25,25c-16.8,16.8-44.1,16.8-60.9,0
		c-8.2-8.2-12.6-19-12.6-30.5s4.5-22.3,12.6-30.5c16.8-16.8,44.1-16.8,60.9,0l68,68c20.7,20.7,54.4,20.7,75.1,0
		c10-10,15.5-23.3,15.5-37.6C325.1,153.1,319.6,139.7,309.6,129.7z M233,131.2l-16.3,16.3L175.1,106c1.1-15,13.6-26.9,28.9-26.9
		c16,0,29,13,29,28.9h-0.1L233,131.2z M204,268.5c-14.5,0-26.9-8.8-32.3-21.3c10.2,5,21.2,7.5,32.3,7.5c11.1,0,22.1-2.5,32.3-7.5
		C230.9,259.7,218.5,268.5,204,268.5z M173.5,204.9l17.8-17.8l30.1,30.1c-17.7,5-37.1,2.1-52.6-8.2
		C170.6,207.7,172.1,206.4,173.5,204.9z M168.8,220.7c10.9,5.9,23.1,9,35.4,9c8.6,0,17.1-1.5,25.3-4.5l9.2,9.2
		c-21.2,14-48.6,13.8-69.8-0.4c0-0.2,0-0.4,0-0.6L168.8,220.7L168.8,220.7z"/>
</g>
<g>
	<path class="st2" d="M503.1,196.4c1-1.2,2.6-1.3,3.7-0.4c6.2,5,16.6,10.8,27.4,10.7c7.3,0,13.8-2.1,18.3-5.5
		c4.6-3.3,7.1-7.7,7.1-12.4c0-4.8-2.3-8.3-6.8-11.4c-4.5-3-11.2-5.2-19.3-6.8h-0.2c-7.7-1.4-14.5-3.6-19.7-7
		c-5.1-3.3-8.6-8.3-8.6-14.5c0-6.3,3.5-11.8,8.7-15.6c5.2-3.8,12.3-6.1,20.1-6.1c11,0,19.2,5.4,25.7,9.7c1.2,0.8,1.5,2.4,0.7,3.7
		c-0.7,1.2-2.4,1.5-3.6,0.7c-6.6-4.3-13.7-8.8-22.9-8.8c-6.8,0-12.9,2-17,5c-4.2,3.1-6.6,7.1-6.6,11.4c0.1,4.2,2,7.3,6.2,10.1
		c4.2,2.9,10.4,4.9,17.9,6.3h0.2c8.3,1.5,15.7,3.9,21.2,7.6c5.5,3.6,9.2,9.1,9.2,15.7c0,6.7-3.8,12.6-9.4,16.7
		c-5.6,4.1-13.1,6.6-21.4,6.6c-12.7-0.1-23.8-6.6-30.7-12C502.4,199.1,502.3,197.4,503.1,196.4z"/>
	<path class="st2" d="M612.5,134.4h-25.1c-1.5,0-2.9-1.3-2.9-3c0-1.5,1.3-2.9,2.9-2.9h56c1.5,0,2.9,1.3,2.9,2.9c0,1.7-1.3,3-2.9,3
		h-25.1v74.7c0,1.5-1.3,2.9-2.9,2.9c-1.5,0-2.9-1.3-2.9-2.9V134.4z"/>
	<path class="st2" d="M708.8,190.4h-38l-7.4,19.7c-0.5,1.2-1.5,1.9-2.7,1.9c-0.2,0-0.7-0.1-1.1-0.1c-1.4-0.6-2.3-2.4-1.7-3.8
		l29-77.3c0.5-1.1,1.7-1.8,2.9-1.8c1.3,0,2.5,0.7,2.9,1.8l29,77.3c0.6,1.4-0.1,3.2-1.5,3.8c-0.5,0-0.7,0.1-1.1,0.1
		c-1.1,0-2.3-0.7-2.7-1.9L708.8,190.4z M672.9,184.6h33.7l-16.8-44.8L672.9,184.6z"/>
	<path class="st2" d="M787.9,193.2c0-6.1-3.1-9.9-6.8-12.6c-3.7-2.6-8.1-3.9-9.7-4.2c-0.4-0.1-0.5-0.2-0.6-0.2h-20.3v33
		c0,1.5-1.3,2.9-3,2.9c-1.5,0-2.9-1.3-2.9-2.9v-77.7c0-1.4,1.2-2.7,2.6-2.9h0.2h0.4h23.2c13.1,0,23.7,10.6,23.7,23.8
		c0,9.5-5.6,17.8-13.7,21.6c0.4,0.2,0.7,0.4,1.2,0.6c5.5,3.1,11.2,9.2,11.2,18.6c0,4.9,0.5,7.9,1.1,9.7c0.5,1.4,1.1,1.9,1.2,2
		c1.3-0.1,2.7,0.6,3.2,1.9c0.4,1.5-0.4,3.2-1.9,3.8c-0.1,0-0.7,0.1-1.4,0.1h-0.2c-1.5,0-4.1-1.2-5.4-3.8
		C788.7,204.1,787.9,200.2,787.9,193.2z M771.2,134.4h-20.6v36h20h1.1c9.7-0.2,17.5-8.2,17.5-18
		C789.2,142.4,781.1,134.4,771.2,134.4z"/>
	<path class="st2" d="M846.4,134.4h-25.1c-1.5,0-2.9-1.3-2.9-3c0-1.5,1.3-2.9,2.9-2.9h56c1.5,0,2.9,1.3,2.9,2.9c0,1.7-1.3,3-2.9,3
		h-25.1v74.7c0,1.5-1.3,2.9-2.9,2.9s-2.9-1.3-2.9-2.9V134.4z"/>
	<path class="st2" d="M908.3,131.4c0-1.5,1.3-2.9,2.9-2.9h0.4h18.2c11.4,0,20.7,9.3,20.7,20.8c0,6.6-3.2,12.4-8,16.2
		c9.4,3.2,16.3,12,16.3,22.5c0,13.2-10.7,23.8-23.8,23.8h-23.5h-0.4h-0.1c-1.5,0-2.7-1.3-2.7-2.9V131.4z M929.8,164.2
		c8.2,0,14.9-6.7,14.9-14.8c0-8.3-6.7-15-14.9-15h-15.6v29.8H929.8z M935,206.1c9.9,0,17.9-8,18-18c-0.1-9.9-8.1-18-18-18h-20.8v36
		H935z"/>
	<path class="st2" d="M985.4,131.4c0-1.5,1.3-2.9,2.9-2.9h0.2h42.7c1.7,0,2.9,1.3,2.9,2.9c0,1.7-1.2,3-2.9,3h-39.9v33h34.9
		c1.5,0,2.9,1.3,2.9,3c0,1.5-1.3,2.9-2.9,2.9h-34.9v32.9h39.9c1.7,0,2.9,1.3,2.9,3c0,1.5-1.2,2.9-2.9,2.9h-42.5h-0.4H988
		c-1.4-0.1-2.6-1.3-2.6-2.9V131.4z"/>
	<path class="st2" d="M1062.4,131.4c0-1.5,1.3-2.9,2.9-2.9h0.2h42.7c1.7,0,2.9,1.3,2.9,2.9c0,1.7-1.2,3-2.9,3h-39.9v33h34.9
		c1.5,0,2.9,1.3,2.9,3c0,1.5-1.3,2.9-2.9,2.9h-34.9v32.9h39.9c1.7,0,2.9,1.3,2.9,3c0,1.5-1.2,2.9-2.9,2.9h-42.5h-0.4h-0.2
		c-1.4-0.1-2.6-1.3-2.6-2.9V131.4z"/>
</g>
</svg>
