<?xml version="1.0" encoding="utf-8"?>
<!-- Generator: Adobe Illustrator 22.0.0, SVG Export Plug-In . SVG Version: 6.00 Build 0)  -->
<svg version="1.1" id="Layer_1" xmlns="http://www.w3.org/2000/svg" xmlns:xlink="http://www.w3.org/1999/xlink" x="0px" y="0px"
	 viewBox="0 0 100 100" style="enable-background:new 0 0 100 100;" xml:space="preserve">
<style type="text/css">
	.st0{fill:#F7DD79;}
	.st1{fill:#5F6060;}
</style>
<path class="st0" d="M76.2,10.9c-0.9-1.6-3.3-3-5.2-3H28.9c-1.9,0-4.2,1.3-5.2,3L2.7,47.4c-0.9,1.6-0.9,4.3,0,6l21.1,36.5
	c0.9,1.6,3.3,3,5.2,3h42.1c1.9,0,4.2-1.3,5.2-3l21.1-36.5c0.9-1.6,0.9-4.3,0-6L76.2,10.9z"/>
<g id="logo_1_">
	<path class="st1" d="M76,39.2c-4.5-4.5-11.3-5-16.4-1.7V34c0-0.1,0-0.1,0-0.2c0-2.7-1.2-5.2-3-7l2-2c0.5-0.5,0.5-1.3,0-1.8
		c-0.5-0.5-1.3-0.5-1.8,0l-2.3,2.3c-1.4-0.7-2.9-1.2-4.6-1.2c-1.7,0-3.2,0.4-4.6,1.2l-2.3-2.3c-0.5-0.5-1.3-0.5-1.8,0
		c-0.5,0.5-0.5,1.3,0,1.8l2,2c-1.8,1.8-3,4.2-3,7v0.5L53.2,47l6.2-6.2c4.1-4.1,10.9-4.1,15,0c2,2,3.1,4.7,3.1,7.5
		c0,2.8-1.1,5.5-3.1,7.5c-4.1,4.1-10.9,4.1-15,0L42.6,39.1c-5.1-5.1-13.4-5.1-18.5,0c-2.5,2.5-3.9,5.8-3.9,9.3
		c0,3.5,1.4,6.8,3.8,9.3c4,4,10,4.9,14.8,2.6v4.5c0,5.5,4,10.1,9.3,11L50,78l1.9-2.3c5.3-0.9,9.3-5.5,9.3-11V64L46.9,49.7l-6.2,6.2
		c-4.1,4.1-10.9,4.1-15,0c-2-2-3.1-4.7-3.1-7.5c0-2.8,1.1-5.5,3.1-7.5c4.1-4.1,10.9-4.1,15,0l16.8,16.8c5.1,5.1,13.4,5.1,18.5,0
		c2.5-2.5,3.8-5.7,3.8-9.3C79.8,44.9,78.5,41.6,76,39.2z M57.1,39.5l-4,4L42.9,33.3c0.3-3.7,3.4-6.6,7.1-6.6c3.9,0,7.1,3.2,7.1,7.1
		h0L57.1,39.5z M50,73.3c-3.6,0-6.6-2.2-8-5.3c2.5,1.2,5.2,1.9,8,1.9c2.7,0,5.4-0.6,8-1.9C56.6,71.2,53.6,73.3,50,73.3z M42.5,57.7
		l4.4-4.4l7.4,7.4c-4.4,1.2-9.1,0.5-12.9-2C41.8,58.3,42.1,58,42.5,57.7z M41.3,61.5C44,63,47,63.8,50,63.8c2.1,0,4.2-0.4,6.2-1.1
		l2.3,2.3c-5.2,3.4-12,3.4-17.2-0.1c0,0,0-0.1,0-0.2L41.3,61.5L41.3,61.5z"/>
</g>
</svg>
